<svg xmlns="http://www.w3.org/2000/svg" width="200" height="190" viewBox="0 0 200 190" shape-rendering="crispEdges">
<!-- Котик -->
<rect width="200" height="190" fill="#ffffff"/>
<rect x="50" y="10" width="20" height="10" fill="#000000"/>
<rect x="130" y="10" width="20" height="10" fill="#000000"/>
<rect x="40" y="20" width="10" height="10" fill="#000000"/>
<rect x="50" y="20" width="20" height="10" fill="#fb8c00"/>
<rect x="70" y="20" width="10" height="10" fill="#000000"/>
<rect x="120" y="20" width="10" height="10" fill="#000000"/>
<rect x="130" y="20" width="20" height="10" fill="#fb8c00"/>
<rect x="150" y="20" width="10" height="10" fill="#000000"/>
<rect x="30" y="30" width="10" height="10" fill="#000000"/>
<rect x="40" y="30" width="10" height="10" fill="#fb8c00"/>
<rect x="50" y="30" width="20" height="10" fill="#f48fb1"/>
<rect x="70" y="30" width="10" height="10" fill="#fb8c00"/>
<rect x="80" y="30" width="40" height="10" fill="#000000"/>
<rect x="120" y="30" width="10" height="10" fill="#fb8c00"/>
<rect x="130" y="30" width="20" height="10" fill="#f48fb1"/>
<rect x="150" y="30" width="10" height="10" fill="#fb8c00"/>
<rect x="160" y="30" width="10" height="10" fill="#000000"/>
<rect x="40" y="40" width="20" height="10" fill="#000000"/>
<rect x="60" y="40" width="80" height="10" fill="#fb8c00"/>
<rect x="140" y="40" width="20" height="10" fill="#000000"/>
<rect x="40" y="50" width="10" height="10" fill="#000000"/>
<rect x="50" y="50" width="30" height="10" fill="#fb8c00"/>
<rect x="80" y="50" width="20" height="10" fill="#e65100"/>
<rect x="100" y="50" width="10" height="10" fill="#fb8c00"/>
<rect x="110" y="50" width="20" height="10" fill="#e65100"/>
<rect x="130" y="50" width="20" height="10" fill="#fb8c00"/>
<rect x="150" y="50" width="10" height="10" fill="#000000"/>
<rect x="30" y="60" width="10" height="10" fill="#000000"/>
<rect x="40" y="60" width="40" height="10" fill="#fb8c00"/>
<rect x="80" y="60" width="20" height="10" fill="#e65100"/>
<rect x="100" y="60" width="10" height="10" fill="#fb8c00"/>
<rect x="110" y="60" width="20" height="10" fill="#e65100"/>
<rect x="130" y="60" width="30" height="10" fill="#fb8c00"/>
<rect x="160" y="60" width="10" height="10" fill="#000000"/>
<rect x="30" y="70" width="10" height="10" fill="#000000"/>
<rect x="40" y="70" width="120" height="10" fill="#fb8c00"/>
<rect x="160" y="70" width="10" height="10" fill="#000000"/>
<rect x="30" y="80" width="10" height="10" fill="#000000"/>
<rect x="40" y="80" width="30" height="10" fill="#fb8c00"/>
<rect x="70" y="80" width="20" height="10" fill="#388e3c"/>
<rect x="90" y="80" width="20" height="10" fill="#fb8c00"/>
<rect x="110" y="80" width="20" height="10" fill="#388e3c"/>
<rect x="130" y="80" width="30" height="10" fill="#fb8c00"/>
<rect x="160" y="80" width="10" height="10" fill="#000000"/>
<rect x="30" y="90" width="10" height="10" fill="#000000"/>
<rect x="40" y="90" width="30" height="10" fill="#fb8c00"/>
<rect x="70" y="90" width="20" height="10" fill="#388e3c"/>
<rect x="90" y="90" width="20" height="10" fill="#fb8c00"/>
<rect x="110" y="90" width="20" height="10" fill="#388e3c"/>
<rect x="130" y="90" width="30" height="10" fill="#fb8c00"/>
<rect x="160" y="90" width="10" height="10" fill="#000000"/>
<rect x="30" y="100" width="10" height="10" fill="#000000"/>
<rect x="40" y="100" width="120" height="10" fill="#fb8c00"/>
<rect x="160" y="100" width="10" height="10" fill="#000000"/>
<rect x="30" y="110" width="10" height="10" fill="#000000"/>
<rect x="40" y="110" width="30" height="10" fill="#fb8c00"/>
<rect x="70" y="110" width="20" height="10" fill="#ffe0b2"/>
<rect x="90" y="110" width="20" height="10" fill="#f48fb1"/>
<rect x="110" y="110" width="20" height="10" fill="#ffe0b2"/>
<rect x="130" y="110" width="30" height="10" fill="#fb8c00"/>
<rect x="160" y="110" width="10" height="10" fill="#000000"/>
<rect x="30" y="120" width="10" height="10" fill="#000000"/>
<rect x="40" y="120" width="30" height="10" fill="#fb8c00"/>
<rect x="70" y="120" width="20" height="10" fill="#ffe0b2"/>
<rect x="90" y="120" width="20" height="10" fill="#000000"/>
<rect x="110" y="120" width="20" height="10" fill="#ffe0b2"/>
<rect x="130" y="120" width="30" height="10" fill="#fb8c00"/>
<rect x="160" y="120" width="10" height="10" fill="#000000"/>
<rect x="30" y="130" width="10" height="10" fill="#000000"/>
<rect x="40" y="130" width="30" height="10" fill="#fb8c00"/>
<rect x="70" y="130" width="60" height="10" fill="#ffe0b2"/>
<rect x="130" y="130" width="30" height="10" fill="#fb8c00"/>
<rect x="160" y="130" width="10" height="10" fill="#000000"/>
<rect x="40" y="140" width="10" height="10" fill="#000000"/>
<rect x="50" y="140" width="100" height="10" fill="#fb8c00"/>
<rect x="150" y="140" width="10" height="10" fill="#000000"/>
<rect x="50" y="150" width="10" height="10" fill="#000000"/>
<rect x="60" y="150" width="80" height="10" fill="#fb8c00"/>
<rect x="140" y="150" width="10" height="10" fill="#000000"/>
<rect x="40" y="160" width="10" height="10" fill="#000000"/>
<rect x="50" y="160" width="30" height="10" fill="#fb8c00"/>
<rect x="80" y="160" width="40" height="10" fill="#ffe0b2"/>
<rect x="120" y="160" width="30" height="10" fill="#fb8c00"/>
<rect x="150" y="160" width="10" height="10" fill="#000000"/>
<rect x="40" y="170" width="10" height="10" fill="#000000"/>
<rect x="50" y="170" width="30" height="10" fill="#fb8c00"/>
<rect x="80" y="170" width="40" height="10" fill="#ffe0b2"/>
<rect x="120" y="170" width="30" height="10" fill="#fb8c00"/>
<rect x="150" y="170" width="10" height="10" fill="#000000"/>
<rect x="50" y="180" width="10" height="10" fill="#000000"/>
<rect x="60" y="180" width="20" height="10" fill="#fb8c00"/>
<rect x="80" y="180" width="10" height="10" fill="#ffe0b2"/>
<rect x="90" y="180" width="10" height="10" fill="#000000"/>
<rect x="100" y="180" width="10" height="10" fill="#ffe0b2"/>
<rect x="110" y="180" width="10" height="10" fill="#000000"/>
<rect x="120" y="180" width="10" height="10" fill="#ffe0b2"/>
<rect x="130" y="180" width="10" height="10" fill="#fb8c00"/>
<rect x="140" y="180" width="10" height="10" fill="#000000"/>
</svg>
